<svg width="110" height="110" viewBox="0 0 110 110" fill="none" xmlns="http://www.w3.org/2000/svg">
<path d="M55 10.3125C46.1617 10.3125 37.5218 12.9334 30.173 17.8437C22.8242 22.754 17.0964 29.7333 13.7142 37.8988C10.3319 46.0644 9.4469 55.0496 11.1712 63.7181C12.8955 72.3866 17.1515 80.3492 23.4012 86.5988C29.6508 92.8485 37.6134 97.1046 46.2819 98.8288C54.9505 100.553 63.9356 99.6682 72.1012 96.2859C80.2668 92.9036 87.246 87.1759 92.1563 79.827C97.0667 72.4782 99.6875 63.8384 99.6875 55C99.6738 43.1523 94.9613 31.7939 86.5837 23.4163C78.2062 15.0387 66.8477 10.3262 55 10.3125ZM76.283 47.175L51.0724 71.2375C50.4314 71.8474 49.5805 72.1875 48.6957 72.1875C47.8109 72.1875 46.96 71.8474 46.319 71.2375L33.7171 59.2062C33.0587 58.5756 32.6776 57.7094 32.6574 56.7979C32.6372 55.8864 32.9796 55.0042 33.6094 54.3451C34.2393 53.6859 35.105 53.3036 36.0164 53.2823C36.9279 53.261 37.8105 53.6023 38.4705 54.2313L48.6957 63.9966L71.5296 42.2C72.1895 41.571 73.0722 41.2297 73.9836 41.2511C74.8951 41.2724 75.7608 41.6546 76.3906 42.3138C77.0204 42.973 77.3629 43.8552 77.3427 44.7667C77.3225 45.6781 76.9414 46.5443 76.283 47.175Z" fill="#3FAEC7"/>
</svg>
