<svg width="36" height="36" viewBox="0 0 36 36" fill="none" xmlns="http://www.w3.org/2000/svg">
<path d="M30.0068 15.4152L18.756 5.18685C18.5489 4.99858 18.2791 4.89426 17.9992 4.89427C17.7193 4.89428 17.4495 4.99862 17.2424 5.1869L5.99317 15.4152C5.87721 15.5207 5.78455 15.6492 5.72115 15.7925C5.65775 15.9359 5.625 16.0909 5.625 16.2476V29.25C5.625 29.5484 5.74353 29.8345 5.95451 30.0455C6.16548 30.2565 6.45163 30.375 6.75 30.375H29.25C29.5484 30.375 29.8345 30.2565 30.0455 30.0455C30.2565 29.8345 30.375 29.5484 30.375 29.25V16.2476C30.375 16.0909 30.3422 15.9359 30.2788 15.7925C30.2154 15.6492 30.1228 15.5207 30.0068 15.4152Z" stroke="#191B1D" stroke-width="2.5" stroke-linecap="round" stroke-linejoin="round"/>
</svg>
