<svg width="36" height="36" viewBox="0 0 36 36" fill="none" xmlns="http://www.w3.org/2000/svg">
<path d="M14.6253 6.75H7.87534C7.25402 6.75 6.75034 7.25368 6.75034 7.875V14.625C6.75034 15.2463 7.25402 15.75 7.87534 15.75H14.6253C15.2467 15.75 15.7503 15.2463 15.7503 14.625V7.875C15.7503 7.25368 15.2467 6.75 14.6253 6.75Z" stroke="#C6CBCC" stroke-width="2" stroke-linecap="round" stroke-linejoin="round"/>
<path d="M14.6253 20.25H7.87534C7.25402 20.25 6.75034 20.7537 6.75034 21.375V28.125C6.75034 28.7463 7.25402 29.25 7.87534 29.25H14.6253C15.2467 29.25 15.7503 28.7463 15.7503 28.125V21.375C15.7503 20.7537 15.2467 20.25 14.6253 20.25Z" stroke="#C6CBCC" stroke-width="2" stroke-linecap="round" stroke-linejoin="round"/>
<path d="M28.1253 6.75H21.3753C20.754 6.75 20.2503 7.25368 20.2503 7.875V14.625C20.2503 15.2463 20.754 15.75 21.3753 15.75H28.1253C28.7467 15.75 29.2503 15.2463 29.2503 14.625V7.875C29.2503 7.25368 28.7467 6.75 28.1253 6.75Z" stroke="#C6CBCC" stroke-width="2" stroke-linecap="round" stroke-linejoin="round"/>
</svg>
