<svg width="28" height="28" viewBox="0 0 28 28" fill="none" xmlns="http://www.w3.org/2000/svg">
<path d="M16.1875 18.812L4.375 18.812" stroke="#191B1D" stroke-width="1.5" stroke-linecap="round" stroke-linejoin="round"/>
<path d="M23.625 18.812L20.5625 18.812" stroke="#191B1D" stroke-width="1.5" stroke-linecap="round" stroke-linejoin="round"/>
<path d="M18.375 20.9995C19.5831 20.9995 20.5625 20.0201 20.5625 18.812C20.5625 17.6039 19.5831 16.6245 18.375 16.6245C17.1669 16.6245 16.1875 17.6039 16.1875 18.812C16.1875 20.0201 17.1669 20.9995 18.375 20.9995Z" stroke="#191B1D" stroke-width="1.5" stroke-linecap="round" stroke-linejoin="round"/>
<path d="M9.1875 9.1866L4.375 9.18652" stroke="#191B1D" stroke-width="1.5" stroke-linecap="round" stroke-linejoin="round"/>
<path d="M23.625 9.18652L13.5625 9.1866" stroke="#191B1D" stroke-width="1.5" stroke-linecap="round" stroke-linejoin="round"/>
<path d="M11.375 11.3745C12.5831 11.3745 13.5625 10.3951 13.5625 9.18701C13.5625 7.97889 12.5831 6.99951 11.375 6.99951C10.1669 6.99951 9.1875 7.97889 9.1875 9.18701C9.1875 10.3951 10.1669 11.3745 11.375 11.3745Z" stroke="#191B1D" stroke-width="1.5" stroke-linecap="round" stroke-linejoin="round"/>
</svg>
