<svg width="64" height="64" viewBox="0 0 64 64" fill="none" xmlns="http://www.w3.org/2000/svg">
<circle cx="32" cy="32" r="32" fill="#463B64" fill-opacity="0.08"/>
<g clip-path="url(#clip0_74_350)">
<path d="M28.8459 50.9439L22.9431 41.8694L27.8023 40.8711L28.7872 43.6041C29.2278 44.0765 29.9863 44.1429 30.4269 44.6154C30.6525 44.8587 30.7676 45.1862 30.8115 45.5158C30.9022 46.1981 30.7462 47.0044 31.2382 47.4904C31.818 48.062 32.8637 47.9901 33.0819 48.9317C33.2787 49.7937 29.5799 52.0272 28.8459 50.9439Z" fill="#287AC6"/>
<path d="M28.9361 53.2169L28.6617 53.4031C28.4044 53.5777 28.1152 53.6999 27.8106 53.7628C27.506 53.8256 27.192 53.8278 26.8866 53.7692C26.5812 53.7106 26.2903 53.5924 26.0306 53.4213C25.7709 53.2503 25.5474 53.0297 25.373 52.7722L18.7113 42.9419L23.8895 41.5544C24.2158 42.0336 24.3316 42.2108 24.6611 42.6891C24.9619 43.1239 25.2616 43.2996 25.2453 43.85C25.2272 44.3942 25.2534 45.0015 25.646 45.422C26.0866 45.8944 26.8451 45.9608 27.2857 46.4333C27.5113 46.6766 27.6264 47.0042 27.6703 47.3337C27.761 48.016 27.605 48.8223 28.097 49.3083C28.6768 49.8799 29.7225 49.808 29.9407 50.7496C30.1407 51.6108 29.6644 52.7248 28.9361 53.2169Z" fill="#3699F4"/>
<path d="M27.7289 48.342C27.741 48.8712 28.0551 48.8587 28.3561 48.7849C29.0905 48.6086 29.9738 48.0579 30.3911 47.7174C30.5513 47.5891 30.6919 47.4388 30.8132 47.28C30.904 47.1601 30.9454 47.0091 30.9166 46.8632C30.8271 46.44 30.8677 45.9547 30.8083 45.5167C30.7837 45.3355 30.7351 45.154 30.6603 44.9897C30.6013 44.8587 30.4233 44.8314 30.3202 44.9307C30.0597 45.1814 29.5903 45.6075 29.2468 45.778C28.5664 46.1174 28.1203 46.2233 27.8099 46.3133C27.5783 46.3787 27.449 46.6352 27.5423 46.856C27.6073 47.0092 27.6476 47.1725 27.6703 47.3337C27.7125 47.6569 27.7208 48.0062 27.7289 48.342Z" fill="#2465A1"/>
<path d="M29.9398 50.7465C29.8766 52.2175 28.9392 52.9738 27.8474 53.3449C26.7906 53.7065 25.8842 53.3043 25.8842 53.3043C28.0467 55.2097 31.6155 52.7073 32.3002 52.0528C33.3462 51.0523 33.3675 50.3162 33.1032 49.0114C33.0882 48.9301 32.8819 48.6953 32.685 48.9665C32.3847 49.3746 31.9815 49.6021 31.5239 49.8305C30.9608 50.1111 30.6329 50.1614 30.3952 50.2422C30.0882 50.3449 29.9509 50.4568 29.9398 50.7465Z" fill="#2465A1"/>
<path d="M18.7113 42.9419L20.4829 45.5664C20.4829 45.5664 20.7285 44.05 23.2154 43.6499C24.9007 43.3792 25.5447 43.821 25.5447 43.821L24.9944 41.3471L18.7113 42.9419Z" fill="#287AC6"/>
<path d="M48.2935 44.354C48.2935 44.354 35.3905 39.268 26.3746 41.4278C22.4971 42.3575 19.7016 43.0963 19.0296 43.2764C16.9223 43.8445 13.6831 41.5005 12.27 36.2268C10.8569 30.9531 12.6457 26.6612 14.7539 26.0963C15.066 26.0127 18.4532 25.3167 22.4542 24.1218C31.8663 21.3131 39.4037 11.1767 39.4037 11.1767L48.2935 44.354Z" fill="#C0E8FF"/>
<path d="M37.7899 34.478C37.6024 35.2177 37.9886 36.6843 38.4476 38.0154C38.7779 38.9679 37.9995 39.9479 36.9963 39.8344C30.1586 39.0793 25.134 40.6577 25.134 40.6577L25.6497 41.6016L26.3714 41.4287C31.8172 40.123 38.6815 41.4615 43.2638 42.7288C43.2638 42.7288 41.5698 41.2985 40.3023 39.0646C38.9851 36.7347 37.7899 34.478 37.7899 34.478Z" fill="#A1C5DF"/>
<path d="M21.9098 33.6439C21.1034 30.6345 21.1829 26.9951 21.7865 24.3178C18.0842 25.3918 15.0501 26.017 14.7539 26.0964C12.6457 26.6613 10.8569 30.9532 12.27 36.2269C13.6831 41.5006 16.9214 43.8414 19.0328 43.2756C19.7048 43.0956 22.5002 42.3568 26.3777 41.427C26.4 41.4211 26.4263 41.4174 26.4486 41.4114C24.3359 39.2333 22.7136 36.6438 21.9098 33.6439Z" fill="#3699F4"/>
<path d="M48.2935 44.354C51.9589 43.3719 52.9402 35.1487 50.4853 25.9871C48.0305 16.8254 43.069 10.1946 39.4037 11.1768C35.7383 12.1589 34.757 20.3821 37.2119 29.5437C39.6667 38.7054 44.6281 45.3362 48.2935 44.354Z" fill="#6C9FC4"/>
<path d="M36.2044 24.612C36.4278 26.1974 36.7628 27.8552 37.2159 29.5462C39.6709 38.7083 44.632 45.3387 48.2975 44.3565C51.963 43.3744 52.9443 35.1517 50.4894 25.9896C50.0362 24.2986 49.4983 22.6986 48.8982 21.2107L36.2044 24.612Z" fill="url(#paint0_linear_74_350)"/>
<path d="M48.5495 45.3096C44.2216 46.4692 38.9367 39.8027 36.2565 29.7999C33.5762 19.797 34.8198 11.3812 39.1477 10.2216C43.4756 9.06191 47.8059 15.9876 50.4853 25.9873C53.1656 35.9901 52.8774 44.1499 48.5495 45.3096ZM39.6597 12.1323C36.9719 12.8525 35.6986 20.0748 38.1672 29.2879C40.6359 38.501 45.3497 44.119 48.0375 43.3988C50.7253 42.6786 51.9986 35.4563 49.5299 26.2433C47.0613 17.0302 42.3475 11.4121 39.6597 12.1323Z" fill="#E0E0E0"/>
<path d="M36.5045 17.6811C36.4261 18.5349 35.8527 20.5351 36.8939 26.3317C36.9292 26.5271 37.0494 27.396 36.5812 27.5214C36.2691 27.6051 36.0505 27.1585 35.8764 26.5088C35.198 23.9771 34.87 21.0715 35.1088 18.0517C35.2456 16.3459 36.6158 16.5044 36.5045 17.6811Z" fill="white"/>
<path d="M37.3228 25.3976L43.5295 24.4855L45.2276 30.8229L39.5417 33.5001C37.8045 28.5965 37.3228 25.3976 37.3228 25.3976Z" fill="url(#paint1_radial_74_350)"/>
<path d="M45.2284 30.826C46.0586 30.6035 46.3514 29.0045 45.8825 27.2545C45.4136 25.5045 44.3605 24.2662 43.5303 24.4886C42.7002 24.711 42.4073 26.31 42.8763 28.06C43.3452 29.8101 44.3983 31.0484 45.2284 30.826Z" fill="#E0E0E0"/>
<path d="M25.6327 42.4936L25.5048 42.9716L27.0621 44.6945C27.2511 44.9032 27.5545 44.9653 27.8083 44.8426L29.4414 44.033C29.4414 44.033 29.7388 43.2195 29.7893 43.0387C29.8399 42.8579 29.7801 42.7749 29.7801 42.7749L27.9191 43.6764C27.9159 43.6772 25.7015 42.4957 25.6327 42.4936Z" fill="#353738"/>
<path d="M27.3275 43.596L25.6162 42.5083L27.9989 41.8596L29.6623 42.6666C29.8708 42.795 29.8229 43.0366 29.6007 43.1371L28.3163 43.7065C27.9924 43.8479 27.6166 43.8086 27.3275 43.596Z" fill="#616161"/>
<path d="M27.5172 24.9668C29.4645 24.1583 31.2934 23.0095 32.7026 21.4407C32.4247 24.3652 32.8118 27.6953 33.9332 30.4155C32.866 30.2031 31.7892 29.9933 30.7026 29.9636C29.7953 29.9405 28.8909 30.0429 27.9942 30.1739C25.7356 30.4958 23.6991 30.9971 21.5096 31.6282C21.5733 31.6111 21.35 30.077 21.3205 28.897C21.2911 27.7171 21.3926 27.0004 21.3926 27.0004C21.3926 27.0004 25.6715 25.7344 27.5172 24.9668Z" fill="#E7F9FF"/>
<path d="M20.4992 27.0931C17.4349 28.0131 13.9971 28.9787 13.9971 28.9787C13.9971 28.9787 12.8033 30.7526 13.3275 33.8172C13.3275 33.8172 17.0057 32.8316 20.3626 31.997C20.0214 29.781 20.2898 28.0059 20.4992 27.0931Z" fill="#83D2FF"/>
</g>
<defs>
<linearGradient id="paint0_linear_74_350" x1="47.7134" y1="42.1842" x2="42.7126" y2="23.5208" gradientUnits="userSpaceOnUse">
<stop stop-color="#353738"/>
<stop offset="1" stop-color="#353738" stop-opacity="0"/>
</linearGradient>
<radialGradient id="paint1_radial_74_350" cx="0" cy="0" r="1" gradientUnits="userSpaceOnUse" gradientTransform="translate(43.3715 28.4729) rotate(-15) scale(6.89656 11.7345)">
<stop offset="0.416" stop-color="#82AEC0"/>
<stop offset="1" stop-color="#7FA9BB" stop-opacity="0"/>
</radialGradient>
<clipPath id="clip0_74_350">
<rect width="42.201" height="42.201" fill="white" transform="translate(6 17.9224) rotate(-15)"/>
</clipPath>
</defs>
</svg>
