<svg width="30" height="30" viewBox="0 0 30 30" fill="none" xmlns="http://www.w3.org/2000/svg">
<path d="M21.9387 21.2902C21.6492 20.2211 21.4788 18.2939 22.312 15.1844L22.4842 14.5418C23.5588 10.5315 21.2222 6.38301 17.2756 5.29406C17.2571 5.28902 17.2388 5.28402 17.2203 5.27907C15.3008 4.7674 13.2566 5.03921 11.5375 6.0347C9.81834 7.03019 8.56506 8.66782 8.05333 10.5873L7.85921 11.3118C7.02608 14.4211 5.91467 16.0047 5.12914 16.7857C4.94176 16.9713 4.80663 17.203 4.73738 17.4575C4.66812 17.7119 4.66719 17.9802 4.73468 18.2351C4.80217 18.4901 4.93569 18.7227 5.12178 18.9096C5.30787 19.0965 5.53995 19.231 5.79461 19.2996L9.32778 20.2463C9.07037 21.207 9.20513 22.2306 9.70241 23.0919C10.1997 23.9532 11.0188 24.5817 11.9794 24.8391C12.9401 25.0965 13.9637 24.9618 14.825 24.4645C15.6863 23.9672 16.3148 23.1481 16.5722 22.1875L20.1054 23.1342C20.3602 23.2021 20.6284 23.2017 20.883 23.1329C21.1375 23.0641 21.3695 22.9294 21.5554 22.7424C21.7413 22.5554 21.8746 22.3227 21.9419 22.0677C22.0092 21.8128 22.0081 21.5446 21.9387 21.2902ZM12.3677 23.3902C11.7916 23.2352 11.3006 22.858 11.0024 22.3414C10.7041 21.8248 10.6229 21.2109 10.7767 20.6346L15.1233 21.7992C14.9683 22.3753 14.5911 22.8663 14.0745 23.1645C13.5579 23.4628 12.944 23.544 12.3677 23.3902Z" fill="#56C2FF"/>
</svg>
