<svg width="24" height="20" viewBox="0 0 24 20" fill="none" xmlns="http://www.w3.org/2000/svg">
<path d="M3.03771 2.37121C2.5502 2.85872 2.16348 3.43748 1.89964 4.07444C1.6358 4.7114 1.5 5.3941 1.5 6.08354C1.5 6.77299 1.6358 7.45568 1.89964 8.09264C2.16348 8.72961 2.5502 9.30837 3.03771 9.79588L12 18.7582L20.9624 9.79588C21.9469 8.8113 22.5001 7.47594 22.5001 6.08354C22.5001 4.69115 21.9469 3.35578 20.9624 2.37121C19.9778 1.38664 18.6424 0.833509 17.25 0.833509C15.8577 0.833509 14.5223 1.38664 13.5377 2.37121L12 3.90888L10.4624 2.37121C9.97487 1.88369 9.39611 1.49698 8.75915 1.23313C8.12218 0.969294 7.43949 0.833496 6.75005 0.833496C6.0606 0.833496 5.37791 0.969294 4.74094 1.23313C4.10398 1.49698 3.52522 1.88369 3.03771 2.37121V2.37121Z" stroke="#2B3641" stroke-width="1.5" stroke-linecap="round" stroke-linejoin="round"/>
</svg>
