<svg width="24" height="22" viewBox="0 0 24 22" fill="none" xmlns="http://www.w3.org/2000/svg">
<path d="M12 20.3332L7.33333 15.6665H3.83333C3.21449 15.6665 2.621 15.4207 2.18342 14.9831C1.74583 14.5455 1.5 13.952 1.5 13.3332V3.99984C1.5 3.381 1.74583 2.78751 2.18342 2.34992C2.621 1.91234 3.21449 1.6665 3.83333 1.6665H20.1667C20.7855 1.6665 21.379 1.91234 21.8166 2.34992C22.2542 2.78751 22.5 3.381 22.5 3.99984V13.3332C22.5 13.952 22.2542 14.5455 21.8166 14.9831C21.379 15.4207 20.7855 15.6665 20.1667 15.6665H16.6667L12 20.3332Z" stroke="#2B3641" stroke-width="1.5" stroke-linecap="round" stroke-linejoin="round"/>
</svg>
