<svg width="21" height="20" viewBox="0 0 21 20" fill="none" xmlns="http://www.w3.org/2000/svg">
<path d="M4.02595 15.3137C4.04543 15.3959 4.08134 15.4732 4.1315 15.5412C4.18166 15.6091 4.24505 15.6662 4.31784 15.7089C4.39063 15.7517 4.47133 15.7793 4.55507 15.7901C4.63881 15.8009 4.72388 15.7946 4.80513 15.7717C8.53085 14.743 12.4656 14.7426 16.1915 15.7706C16.2728 15.7935 16.3578 15.7998 16.4415 15.789C16.5252 15.7782 16.6059 15.7506 16.6787 15.7079C16.7514 15.6651 16.8148 15.6081 16.865 15.5402C16.9151 15.4723 16.951 15.395 16.9705 15.3129L18.9619 6.8506C18.9885 6.73732 18.983 6.61884 18.946 6.50851C18.9089 6.39818 18.8418 6.30039 18.7522 6.22614C18.6626 6.1519 18.554 6.10415 18.4387 6.08828C18.3234 6.07241 18.206 6.08904 18.0996 6.13631L14.1478 7.89269C14.0051 7.95611 13.8438 7.96382 13.6957 7.91429C13.5476 7.86476 13.4234 7.76159 13.3476 7.62508L11.0466 3.48334C10.9925 3.38591 10.9133 3.30472 10.8172 3.2482C10.7212 3.19167 10.6117 3.16187 10.5003 3.16187C10.3888 3.16187 10.2794 3.19167 10.1833 3.2482C10.0873 3.30472 10.0081 3.38591 9.95393 3.48334L7.65296 7.62508C7.57713 7.76159 7.45294 7.86476 7.30484 7.91429C7.15675 7.96381 6.99548 7.95611 6.85278 7.89269L2.90032 6.13604C2.79399 6.08878 2.67658 6.07215 2.56131 6.08801C2.44604 6.10386 2.33748 6.15158 2.24786 6.2258C2.15824 6.30001 2.09112 6.39776 2.05405 6.50806C2.01698 6.61835 2.01144 6.73681 2.03804 6.85008L4.02595 15.3137Z" stroke="#2B3641" stroke-linecap="round" stroke-linejoin="round"/>
<path d="M8 12.6311C9.66208 12.4563 11.3379 12.4563 13 12.6311" stroke="#2B3641" stroke-linecap="round" stroke-linejoin="round"/>
</svg>
