<svg width="28" height="28" viewBox="0 0 28 28" fill="none" xmlns="http://www.w3.org/2000/svg">
<path d="M10.3468 23.1033H5.72407C5.50458 23.1033 5.29408 23.0161 5.13888 22.8609C4.98368 22.7057 4.89648 22.4952 4.89648 22.2757V17.653C4.89648 17.5443 4.91789 17.4367 4.95948 17.3363C5.00107 17.2359 5.06203 17.1447 5.13888 17.0678L17.5527 4.65401C17.7079 4.49881 17.9184 4.41162 18.1379 4.41162C18.3574 4.41162 18.5679 4.49881 18.7231 4.65401L23.3458 9.27674C23.501 9.43194 23.5882 9.64244 23.5882 9.86193C23.5882 10.0814 23.501 10.2919 23.3458 10.4471L10.932 22.8609C10.8551 22.9378 10.7639 22.9987 10.6635 23.0403C10.5631 23.0819 10.4555 23.1033 10.3468 23.1033Z" stroke="white" stroke-width="2" stroke-linecap="round" stroke-linejoin="round"/>
<path d="M14.8276 7.37915L20.6207 13.1723" stroke="white" stroke-width="2" stroke-linecap="round" stroke-linejoin="round"/>
<path d="M10.6368 23.0504L4.94922 17.3628" stroke="white" stroke-width="2" stroke-linecap="round" stroke-linejoin="round"/>
<path d="M16.4971 23.1182L19.8074 23.1182M23.1178 23.1182L19.8074 23.1182M19.8074 23.1182L19.8074 19.793M19.8074 23.1182L19.8074 26.4137" stroke="white" stroke-width="2" stroke-linecap="round"/>
</svg>
