<svg width="36" height="36" viewBox="0 0 36 36" fill="none" xmlns="http://www.w3.org/2000/svg">
<path d="M30.0068 15.415L18.756 5.18663C18.5489 4.99835 18.2791 4.89403 17.9992 4.89404C17.7193 4.89405 17.4495 4.99839 17.2424 5.18668L5.99317 15.415C5.87721 15.5204 5.78455 15.649 5.72115 15.7923C5.65775 15.9356 5.625 16.0906 5.625 16.2474V29.2498C5.625 29.5481 5.74353 29.8343 5.95451 30.0453C6.16548 30.2562 6.45163 30.3748 6.75 30.3748H29.25C29.5484 30.3748 29.8345 30.2562 30.0455 30.0453C30.2565 29.8343 30.375 29.5481 30.375 29.2498V16.2474C30.375 16.0907 30.3422 15.9357 30.2788 15.7923C30.2154 15.649 30.1228 15.5204 30.0068 15.415Z" stroke="#3FAEC7" stroke-width="2.5" stroke-linecap="round" stroke-linejoin="round"/>
</svg>
