<svg width="48" height="48" viewBox="0 0 48 48" fill="none" xmlns="http://www.w3.org/2000/svg">
<path d="M43.1998 2.3999H21.5998C18.9598 2.3999 16.7998 4.5599 16.7998 7.1999V26.3999H33.5998L40.7998 33.5999V26.3999H43.1998C45.8398 26.3999 47.9998 24.2423 47.9998 21.5999V7.1999C47.9998 4.5599 45.8398 2.3999 43.1998 2.3999Z" fill="#3FAEC7"/>
<path d="M13.92 29.2799V14.3999H4.8C2.16 14.3999 0 16.5599 0 19.1999V33.5999C0 36.2399 2.16 38.3999 4.8 38.3999H7.2V45.5999L14.4 38.3999H26.4C29.04 38.3999 31.2 36.2399 31.2 33.5999V29.2319C31.0423 29.2658 30.8813 29.2827 30.72 29.2823H13.92V29.2799Z" fill="#C6CBCC"/>
</svg>
