<svg width="36" height="36" viewBox="0 0 36 36" fill="none" xmlns="http://www.w3.org/2000/svg">
<path d="M30.0312 7.0625H5.96875C5.36469 7.0625 4.875 7.55219 4.875 8.15625V27.8438C4.875 28.4478 5.36469 28.9375 5.96875 28.9375H30.0312C30.6353 28.9375 31.125 28.4478 31.125 27.8438V8.15625C31.125 7.55219 30.6353 7.0625 30.0312 7.0625Z" stroke="#3FAEC7" stroke-width="1.5" stroke-linecap="round" stroke-linejoin="round"/>
<path d="M4.875 23.4688L11.7578 16.586C11.8594 16.4844 11.98 16.4038 12.1127 16.3489C12.2454 16.2939 12.3876 16.2656 12.5312 16.2656C12.6749 16.2656 12.8171 16.2939 12.9498 16.3489C13.0825 16.4038 13.2031 16.4844 13.3046 16.586L19.4141 22.6954C19.5156 22.797 19.6362 22.8776 19.7689 22.9325C19.9016 22.9875 20.0438 23.0158 20.1875 23.0158C20.3311 23.0158 20.4733 22.9875 20.606 22.9325C20.7387 22.8776 20.8593 22.797 20.9609 22.6954L23.7891 19.8672C23.8906 19.7657 24.0112 19.6851 24.1439 19.6301C24.2766 19.5752 24.4188 19.5469 24.5625 19.5469C24.7061 19.5469 24.8483 19.5752 24.981 19.6301C25.1137 19.6851 25.2343 19.7657 25.3359 19.8672L31.125 25.6563" stroke="#3FAEC7" stroke-width="1.5" stroke-linecap="round" stroke-linejoin="round"/>
<path d="M21.8281 15.8125C22.7342 15.8125 23.4688 15.078 23.4688 14.1719C23.4688 13.2658 22.7342 12.5312 21.8281 12.5312C20.922 12.5312 20.1875 13.2658 20.1875 14.1719C20.1875 15.078 20.922 15.8125 21.8281 15.8125Z" fill="#3FAEC7"/>
</svg>
