<svg width="16" height="17" viewBox="0 0 16 17" fill="none" xmlns="http://www.w3.org/2000/svg">
<path d="M5.5 10.5C7.29493 10.5 8.75 9.04493 8.75 7.25C8.75 5.45507 7.29493 4 5.5 4C3.70507 4 2.25 5.45507 2.25 7.25C2.25 9.04493 3.70507 10.5 5.5 10.5Z" stroke="#2B3641" stroke-miterlimit="10"/>
<path d="M9.71338 4.12083C10.1604 3.99488 10.6292 3.96619 11.0882 4.03669C11.5473 4.10718 11.9859 4.27523 12.3745 4.52951C12.7631 4.78378 13.0927 5.11839 13.3411 5.51078C13.5896 5.90317 13.751 6.34424 13.8146 6.80428C13.8782 7.26433 13.8425 7.73265 13.7098 8.17773C13.5772 8.6228 13.3507 9.03428 13.0457 9.38445C12.7406 9.73463 12.364 10.0154 11.9413 10.2078C11.5187 10.4001 11.0596 10.4997 10.5952 10.4998" stroke="#2B3641" stroke-linecap="round" stroke-linejoin="round"/>
<path d="M1 12.8373C1.50758 12.1153 2.18143 11.526 2.96466 11.1192C3.74788 10.7124 4.61748 10.5 5.50005 10.5C6.38262 10.5 7.25224 10.7123 8.0355 11.119C8.81875 11.5258 9.49264 12.115 10.0003 12.837" stroke="#2B3641" stroke-linecap="round" stroke-linejoin="round"/>
<path d="M10.5952 10.5C11.4779 10.4994 12.3477 10.7114 13.131 11.1182C13.9143 11.525 14.5881 12.1146 15.0952 12.837" stroke="#2B3641" stroke-linecap="round" stroke-linejoin="round"/>
</svg>
