<svg width="32" height="32" viewBox="0 0 32 32" fill="none" xmlns="http://www.w3.org/2000/svg">
<path d="M26.2295 12.7707L25.9717 13.0286L25.9403 13.392C25.2321 21.6104 18.2978 28.0002 10 28.0002C8.27744 28.0002 6.94997 27.7252 6.00003 27.2502L5.99999 27.2501C5.24985 26.8751 5.00349 26.5054 5.00025 26.5005L5.00002 26.5001L5.00214 26.4993C5.05164 26.4807 8.20498 25.2784 10.2851 22.925L11.0208 22.0926L10.1158 21.4482C9.0169 20.6656 8.04972 19.713 7.25066 18.6261L7.25 18.6252C5.6778 16.4915 3.95864 12.7278 4.99999 7.00018L4.99999 7.00016L5.00001 7.00016L5.00002 7.00016L5.00003 7.00016L5.00104 7.00117C5.05628 7.05626 9.38061 11.3343 14.7472 12.7323L15.9982 13.0582L15.9993 11.7655L16 11.0035C16.0097 9.66857 16.5488 8.39197 17.4988 7.45398C18.4486 6.51622 19.7315 5.99356 21.0661 6.00056C21.9319 6.01322 22.7797 6.24989 23.527 6.68755C24.2753 7.12587 24.8972 7.75079 25.3318 8.50127L25.6207 9.0001L26.1971 9.00011L30 9.00017L26.2295 12.7707ZM4.99999 7.00015L4.99998 7.00015C4.99998 7.00015 4.99999 7.00016 4.99999 7.00015Z" stroke="#406FF1" stroke-width="2"/>
</svg>
